HIERARCHY
ROOT Hips
{
	OFFSET 0.000000 0.000000 0.000000 
	CHANNELS 6 Xposition Yposition Zposition Zrotation Yrotation Xrotation
	JOINT LeftUpLeg
	{
		OFFSET 1.363060 -1.794630 0.839290 
		CHANNELS 3 Zrotation Yrotation Xrotation
		JOINT LeftLeg
		{
			OFFSET 2.448110 -6.726130 0.000000 
			CHANNELS 3 Zrotation Yrotation Xrotation
			JOINT LeftFoot
			{
				OFFSET 2.562200 -7.039590 0.000000 
				CHANNELS 3 Zrotation Yrotation Xrotation
				JOINT LeftToeBase
				{
					OFFSET 0.157640 -0.433110 2.322550 
					CHANNELS 3 Zrotation Yrotation Xrotation
					End Site
					{
						OFFSET 0.000000 0.000000 0.000000 
					}
				}
			}
		}
	}
	JOINT RightUpLeg
	{
		OFFSET -1.305520 -1.794630 0.839290 
		CHANNELS 3 Zrotation Yrotation Xrotation
		JOINT RightLeg
		{
			OFFSET -2.542530 -6.985550 0.000000 
			CHANNELS 3 Zrotation Yrotation Xrotation
			JOINT RightFoot
			{
				OFFSET -2.568260 -7.056230 0.000000 
				CHANNELS 3 Zrotation Yrotation Xrotation
				JOINT RightToeBase
				{
					OFFSET -0.164730 -0.452590 2.363150 
					CHANNELS 3 Zrotation Yrotation Xrotation
					End Site
					{
						OFFSET 0.000000 0.000000 0.000000 
					}
				}
			}
		}
	}
	JOINT Spine
	{
		OFFSET 0.028270 2.035590 -0.193380 
		CHANNELS 3 Zrotation Yrotation Xrotation
		JOINT Spine1
		{
			OFFSET 0.056720 2.048850 -0.042750 
			CHANNELS 3 Zrotation Yrotation Xrotation
			JOINT Neck1
			{
				OFFSET -0.054170 1.746240 0.172020 
				CHANNELS 3 Zrotation Yrotation Xrotation
				JOINT Head
				{
					OFFSET 0.104070 1.761360 -0.123970 
					CHANNELS 3 Zrotation Yrotation Xrotation
					End Site
					{
						OFFSET 0.000000 0.000000 0.000000 
					}
				}
			}
			JOINT LeftArm
			{
				OFFSET 3.362410 1.200890 -0.311210 
				CHANNELS 3 Zrotation Yrotation Xrotation
				JOINT LeftForeArm
				{
					OFFSET 4.983000 -0.000000 -0.000000 
					CHANNELS 3 Zrotation Yrotation Xrotation
					JOINT LeftHand
					{
						OFFSET 3.483560 -0.000000 -0.000000 
						CHANNELS 3 Zrotation Yrotation Xrotation
						JOINT LeftHandIndex1
						{
							OFFSET 0.715260 -0.000000 -0.000000 
							CHANNELS 3 Zrotation Yrotation Xrotation
							End Site
							{
								OFFSET 0.000000 0.000000 0.000000 
							}
						}
					}
				}
			}
			JOINT RightArm
			{
				OFFSET -3.136600 1.374050 -0.404650 
				CHANNELS 3 Zrotation Yrotation Xrotation
				JOINT RightForeArm
				{
					OFFSET -5.241900 -0.000000 -0.000000 
					CHANNELS 3 Zrotation Yrotation Xrotation
					JOINT RightHand
					{
						OFFSET -3.444170 -0.000000 -0.000000 
						CHANNELS 3 Zrotation Yrotation Xrotation
						JOINT RightHandIndex1
						{
							OFFSET -0.622530 -0.000000 -0.000000 
							CHANNELS 3 Zrotation Yrotation Xrotation
							End Site
							{
								OFFSET 0.000000 0.000000 0.000000 
							}
						}
					}
				}
			}
		}
	}
}
MOTION
Frames: 7
Frame Time: 0.041667
5.679011 17.520926 31.170042 -162.854782 -89.923186 -179.689645 -7.282444 -1.648183 0.758663 -4.679070 -0.786504 3.469818 -0.073872 6.889050 24.170868 0.000000 0.000000 0.000000 28.940179 23.570499 -12.660568 4.759280 -11.247835 20.502354 4.609296 -17.581173 -2.925360 -0.020400 0.922800 -2.536500 1.180190 1.023221 -4.613911 0.027300 0.029277 11.133512 4.471840 1.755712 12.278532 -2.231100 1.387900 7.304800 -90.358355 -45.139351 34.631362 157.702351 -30.214938 -113.314404 9.946903 -7.639249 -2.825348 -7.125000 0.000000 0.000000 82.061045 40.477043 34.457406 -155.694369 28.302324 -112.447289 -3.404556 3.054618 25.891429 7.125000 0.000000 0.000000 
5.674450 17.521371 31.171488 -163.312491 -89.933788 -179.196831 -7.278969 -1.649382 0.763340 -4.678918 -0.788947 3.471243 -0.074579 6.886549 24.171813 0.000000 0.000000 0.000000 28.901681 23.585140 -12.697377 4.757926 -11.259495 20.513574 4.612842 -17.591977 -2.932189 -0.021300 0.942000 -2.589300 1.170906 0.946842 -4.609472 -0.093293 -0.005898 11.088225 4.471307 1.885071 12.174838 -2.162300 1.427800 7.223200 -89.553962 -45.129594 33.117427 157.957940 -29.779960 -113.389992 9.952310 -7.637365 -2.450789 -7.125000 0.000000 0.000000 81.988469 40.162816 33.146848 -156.094920 27.871714 -112.606667 -3.415229 3.072393 25.853388 7.125000 0.000000 0.000000 
5.670001 17.521593 31.172711 -163.662519 -89.936104 -178.815200 -7.276601 -1.650221 0.766532 -4.678816 -0.790629 3.472220 -0.074984 6.884828 24.172457 0.000000 0.000000 0.000000 28.873091 23.596077 -12.726043 4.757272 -11.268455 20.521826 4.612967 -17.592938 -2.938074 -0.021800 0.953800 -2.621800 1.160939 0.882799 -4.600058 -0.197276 -0.033365 11.059408 4.473172 2.011511 12.083826 -2.093100 1.467700 7.135600 -88.683465 -45.057039 31.819058 158.103425 -29.458676 -113.432939 9.938814 -7.618476 -2.074971 -7.125000 0.000000 0.000000 81.848101 39.861354 32.142833 -156.437469 27.490817 -112.741954 -3.430150 3.073089 25.740050 7.125000 0.000000 0.000000 
5.665662 17.521705 31.173713 -163.917184 -89.930521 -178.535944 -7.275227 -1.650734 0.768392 -4.678758 -0.791623 3.472794 -0.075139 6.883810 24.172829 0.000000 0.000000 0.000000 28.855208 23.610603 -12.743215 4.757143 -11.274536 20.526683 4.612034 -17.590910 -2.945136 -0.022200 0.960900 -2.641100 1.150499 0.839018 -4.587468 -0.285618 -0.050084 11.038898 4.473480 2.123953 12.007498 -2.036300 1.504800 7.040500 -87.845545 -44.922199 30.805016 158.176033 -29.228400 -113.458577 9.910637 -7.619861 -1.772474 -7.125000 0.000000 0.000000 81.649014 39.560209 31.366788 -156.697574 27.190573 -112.845141 -3.442008 3.068698 25.651225 7.125000 0.000000 0.000000 
5.661546 17.521593 31.174602 -164.111882 -89.919628 -178.320193 -7.274535 -1.651024 0.769338 -4.678732 -0.792149 3.473092 -0.075109 6.883273 24.173015 0.000000 0.000000 0.000000 28.844289 23.626123 -12.751337 4.757554 -11.277925 20.528387 4.609497 -17.583703 -2.953041 -0.022000 0.958600 -2.634900 1.139767 0.804083 -4.572374 -0.367834 -0.062052 11.029660 4.479106 2.226355 11.953013 -1.980600 1.539800 6.943500 -87.016064 -44.739431 29.972857 158.195255 -29.065170 -113.471899 9.877070 -7.631289 -1.639545 -7.125000 0.000000 0.000000 81.433985 39.273663 30.798977 -156.867840 26.983283 -112.916554 -3.444357 3.069387 25.639575 7.125000 0.000000 0.000000 
5.657431 17.521482 31.175492 -164.360125 -89.906027 -178.058923 -7.273779 -1.651339 0.770368 -4.678703 -0.792716 3.473415 -0.075092 6.882692 24.173216 0.000000 0.000000 0.000000 28.835535 23.641255 -12.749828 4.757962 -11.278917 20.527798 4.607269 -17.577344 -2.959393 -0.021800 0.953700 -2.621400 1.128278 0.780581 -4.555395 -0.446534 -0.068894 11.032153 4.488677 2.313880 11.930102 -1.927200 1.570300 6.855700 -86.246830 -44.509972 29.338054 158.159496 -28.981068 -113.472702 9.831420 -7.665090 -1.579814 -7.125000 0.000000 0.000000 81.209391 39.009106 30.377049 -156.947725 26.870592 -112.956581 -3.436913 3.075721 25.731309 7.125000 0.000000 0.000000 
5.653426 17.521371 31.176382 -164.628890 -89.887728 -177.786264 -7.273186 -1.651600 0.771178 -4.678683 -0.793170 3.473671 -0.075034 6.882228 24.173370 0.000000 0.000000 0.000000 28.832756 23.654060 -12.736302 4.758029 -11.277704 20.526636 4.605505 -17.571519 -2.963387 -0.021700 0.951900 -2.616500 1.117846 0.759336 -4.537085 -0.522504 -0.074953 11.047375 4.497976 2.389856 11.944626 -1.881000 1.598600 6.785800 -85.546827 -44.244966 28.821370 158.071544 -28.971178 -113.462757 9.770694 -7.732208 -1.604912 -7.125000 0.000000 0.000000 80.997420 38.777237 30.086685 -156.920349 26.867285 -112.967867 -3.392553 3.127496 26.003169 7.125000 0.000000 0.000000 
